HIERARCHY
ROOT Hips
{
	OFFSET -0.001795 -0.223333 0.028219
	CHANNELS 6 Xposition Yposition Zposition Zrotation Yrotation Xrotation 
	JOINT LeftUpLeg
	{
		OFFSET 0.069520 -0.091406 -0.006815
		CHANNELS 3 Zrotation Yrotation Xrotation
		JOINT LeftLeg
		{
			OFFSET 0.034277 -0.375199 -0.004496
			CHANNELS 3 Zrotation Yrotation Xrotation
			JOINT LeftFoot
			{
				OFFSET -0.013596 -0.397961 -0.043693
				CHANNELS 3 Zrotation Yrotation Xrotation
				JOINT LeftToe
				{
					OFFSET 0.026358 -0.055791 0.119288
					CHANNELS 3 Zrotation Yrotation Xrotation
					End Site
					{
						OFFSET 0.000000 0.000000 0.000000
					}
				}
			}
		}
	}
	JOINT RightUpLeg
	{
		OFFSET -0.067670 -0.090522 -0.004320
		CHANNELS 3 Zrotation Yrotation Xrotation
		JOINT RightLeg
		{
			OFFSET -0.038290 -0.382569 -0.008850
			CHANNELS 3 Zrotation Yrotation Xrotation
			JOINT RightFoot
			{
				OFFSET 0.015774 -0.398415 -0.042312
				CHANNELS 3 Zrotation Yrotation Xrotation
				JOINT RightToe
				{
					OFFSET -0.025372 -0.048144 0.123348
					CHANNELS 3 Zrotation Yrotation Xrotation
					End Site
					{
						OFFSET 0.000000 0.000000 0.000000
					}
				}
			}
		}
	}
	JOINT Spine
	{
		OFFSET -0.002533 0.108963 -0.026696
		CHANNELS 3 Zrotation Yrotation Xrotation
		JOINT Spine1
		{
			OFFSET 0.005487 0.135180 0.001092
			CHANNELS 3 Zrotation Yrotation Xrotation
			JOINT Spine2
			{
				OFFSET 0.001457 0.052922 0.025425
				CHANNELS 3 Zrotation Yrotation Xrotation
				JOINT Neck
				{
					OFFSET -0.002778 0.213870 -0.042857
					CHANNELS 3 Zrotation Yrotation Xrotation
					JOINT Head
					{
						OFFSET 0.005152 0.064970 0.051349
						CHANNELS 3 Zrotation Yrotation Xrotation
						End Site
						{
							OFFSET 0.000000 0.000000 0.000000
						}
					}
				}
				JOINT LeftShoulder
				{
					OFFSET 0.078845 0.121749 -0.034090
					CHANNELS 3 Zrotation Yrotation Xrotation
					JOINT LeftArm
					{
						OFFSET 0.090977 0.030469 -0.008868
						CHANNELS 3 Zrotation Yrotation Xrotation
						JOINT LeftForeArm
						{
							OFFSET 0.259612 -0.012772 -0.027456
							CHANNELS 3 Zrotation Yrotation Xrotation
							JOINT LeftHand
							{
								OFFSET 0.249234 0.008986 -0.001171
								CHANNELS 3 Zrotation Yrotation Xrotation
								End Site
								{
									OFFSET 0.000000 0.000000 0.000000
								}
							}
						}
					}
				}
				JOINT RightShoulder
				{
					OFFSET -0.081759 0.118833 -0.038615
					CHANNELS 3 Zrotation Yrotation Xrotation
					JOINT RightArm
					{
						OFFSET -0.096012 0.032551 -0.009143
						CHANNELS 3 Zrotation Yrotation Xrotation
						JOINT RightForeArm
						{
							OFFSET -0.253742 -0.013329 -0.021401
							CHANNELS 3 Zrotation Yrotation Xrotation
							JOINT RightHand
							{
								OFFSET -0.255298 0.007772 -0.005559
								CHANNELS 3 Zrotation Yrotation Xrotation
								End Site
								{
									OFFSET 0.000000 0.000000 0.000000
								}
							}
						}
					}
				}
			}
		}
	}
}
MOTION
Frames: 5
Frame Time: 0.050000
0.250587 0.949813 1.673305 -2.252719 11.175111 2.633179 -5.638295 1.502997 11.353933 10.250011 -2.764666 11.895543 -11.490174 -7.949002 19.619564 0.000000 0.000000 0.000000 0.854725 2.568302 -34.608977 1.608056 -1.443642 47.073269 -1.614933 -6.612848 10.082951 0.000000 0.000000 0.000000 -2.465159 -0.275912 10.424956 4.610792 -2.422478 1.515749 4.048244 -13.811244 0.366963 -7.788045 4.515043 -24.068296 0.000000 0.000000 0.000000 -19.694302 11.974327 -6.494853 -45.149178 -8.104138 -2.693160 -148.155333 -63.491595 142.778583 0.000000 0.000000 0.000000 9.963073 -8.898639 -5.768338 39.122639 -20.051328 -9.513393 77.274623 47.700172 36.249232 0.000000 0.000000 0.000000 
0.260734 0.978388 1.797847 -2.488397 10.527638 3.270769 -3.939183 1.325704 11.509028 9.449150 -3.755742 19.160064 -15.702625 -6.066787 33.372928 0.000000 0.000000 0.000000 3.091028 3.044578 -30.929770 0.345346 0.178215 21.789150 0.279868 -5.094591 20.210095 0.000000 0.000000 0.000000 -0.986080 -0.188551 5.645575 5.878565 -3.251974 2.914124 2.642661 -17.137732 -0.146316 -9.928512 5.445147 -21.645386 0.000000 0.000000 0.000000 -20.408535 16.433848 -8.582687 -45.802450 -7.457699 -2.941433 -145.879480 -59.190694 137.871391 0.000000 0.000000 0.000000 5.775816 -6.875676 -3.953062 41.690642 -23.690562 -11.863324 78.680785 45.106919 33.461499 0.000000 0.000000 0.000000 
0.269303 0.977719 1.919218 -1.254830 10.507792 3.167618 -4.780447 0.758089 5.106690 8.509662 -7.005763 37.444954 -15.235388 -5.084713 34.909853 0.000000 0.000000 0.000000 5.114192 3.009636 -25.009844 -1.257121 0.625128 15.935430 0.539464 -4.614133 20.482100 0.000000 0.000000 0.000000 -1.471682 -0.091270 3.822906 5.140722 -2.792768 2.351122 1.774649 -15.394092 1.709758 -7.100127 4.262392 -18.436628 0.000000 0.000000 0.000000 -18.642313 14.128702 -7.352787 -45.830697 -3.766708 -4.256540 -144.475235 -56.075295 131.646265 0.000000 0.000000 0.000000 8.013772 -5.743115 -4.049193 43.244490 -26.909178 -13.446013 76.748356 46.824391 34.922524 0.000000 0.000000 0.000000 
0.276306 0.950577 2.033489 -1.540432 8.745190 0.742177 -4.457583 -0.557684 -5.183846 4.222900 -8.648585 58.326088 -10.617920 -1.173206 33.373995 0.000000 0.000000 0.000000 8.792744 2.990682 -18.969576 -3.598141 1.515352 22.411403 0.183011 -3.510898 12.252435 0.000000 0.000000 0.000000 -0.456308 -0.264154 6.583304 3.170283 -2.000027 4.632128 3.188547 -8.644830 0.280273 -6.146126 4.210384 -19.825966 0.000000 0.000000 0.000000 -17.723644 12.053048 -7.074830 -46.316494 -0.624127 -5.079177 -141.665448 -54.638795 121.644284 0.000000 0.000000 0.000000 11.509927 -6.981046 -4.906169 45.211269 -25.164984 -13.061090 68.034937 51.516298 35.505804 0.000000 0.000000 0.000000 
0.282289 0.922882 2.142698 -1.912639 8.659559 -1.541532 -4.060038 -2.328937 -17.409022 4.132317 -10.669649 67.832020 -6.449716 0.093624 24.351906 0.000000 0.000000 0.000000 10.452206 1.991414 -11.363840 -3.935506 1.720292 26.061246 -1.515511 -4.503200 2.208000 0.000000 0.000000 0.000000 -0.177858 -0.491791 10.503792 2.347858 -1.493101 3.951685 3.401318 -4.235008 0.618127 -4.452597 3.729227 -20.045264 0.000000 0.000000 0.000000 -19.299304 12.716887 -8.531932 -43.672480 2.658992 -5.808153 -134.269195 -54.946171 107.943699 0.000000 0.000000 0.000000 14.599230 -6.748780 -4.841412 44.686955 -20.428136 -11.069843 67.486862 54.825319 39.265848 0.000000 0.000000 0.000000 
